<svg width="130" height="130" viewBox="0 0 130 130" fill="none" xmlns="http://www.w3.org/2000/svg">
<path fill-rule="evenodd" clip-rule="evenodd" d="M10 60V50H20V40V30V20H30V10H40H50H60H70V20H80V30H90V40H100V50H110V60V70H120V80V90V100H110V110H100H90H80H70V120H60H50H40H30V110H20V100H10V90V80V70V60Z" fill="#1F1721"/>
<path d="M110 100H120V110H110V100Z" fill="#101015"/>
<path d="M100 40H110V50H100V40Z" fill="#101015"/>
<path d="M90 30H100V40H90V30Z" fill="#101015"/>
<path d="M80 20H90V30H80V20Z" fill="#101015"/>
<path d="M70 10H80V20H70V10Z" fill="#101015"/>
<path d="M20 10H30V20H20V10Z" fill="#101015"/>
<path d="M10 40H20V50H10V40Z" fill="#101015"/>
<path d="M10 100H20V110H10V100Z" fill="#101015"/>
<path d="M10 90H20V100H10V90Z" fill="#101015"/>
<path d="M20 100H30V110H20V100Z" fill="#101015"/>
<path d="M30 100H40V110H30V100Z" fill="#101015"/>
<path d="M30 110H70V120H30V110Z" fill="#101015"/>
<path d="M20 110H30V120H20V110Z" fill="#101015"/>
<path d="M60 100H70V110H60V100Z" fill="#101015"/>
<path d="M40 100H50V110H40V100Z" fill="#101015"/>
<path d="M40 90H50V100H40V90Z" fill="#101015"/>
<path d="M40 80H50V90H40V80Z" fill="#101015"/>
<path d="M50 90H60V100H50V90Z" fill="#101015"/>
<path d="M60 90H70V100H60V90Z" fill="#101015"/>
<path d="M70 90H80V100H70V90Z" fill="#101015"/>
<path d="M80 90H90V100H80V90Z" fill="#101015"/>
<path d="M90 90H100V100H90V90Z" fill="#101015"/>
<path d="M100 90H110V100H100V90Z" fill="#101015"/>
<path d="M90 80H100V90H90V80Z" fill="#101015"/>
<path d="M100 80H110V90H100V80Z" fill="#101015"/>
<path d="M90 70H100V80H90V70Z" fill="#101015"/>
<path d="M20 40H30V50H20V40Z" fill="#101015"/>
<path d="M30 40H40V50H30V40Z" fill="#101015"/>
<path d="M40 50H50V60H40V50Z" fill="#101015"/>
<path d="M100 70H110V80H100V70Z" fill="#101015"/>
<path d="M100 60H110V70H100V60Z" fill="#101015"/>
<path d="M110 90H120V100H110V90Z" fill="#101015"/>
<path d="M110 80H120V90H110V80Z" fill="#101015"/>
<path d="M110 70H120V80H110V70Z" fill="#101015"/>
<path d="M90 100H100V110H90V100Z" fill="#101015"/>
<path d="M100 100H110V110H100V100Z" fill="#101015"/>
<path d="M70 100H80V110H70V100Z" fill="#101015"/>
<path d="M80 100H90V110H80V100Z" fill="#101015"/>
<path d="M70 80H80V90H70V80Z" fill="#101015"/>
<path d="M20 90H30V100H20V90Z" fill="#101015"/>
<path d="M40 120H30V130H40H50H60H70V120H60H50H40Z" fill="#101015"/>
<path d="M80 110H70V120H80H90H100H110V110H100H90H80Z" fill="#101015"/>
<path d="M120 70H130V80V90V100H120V90V80V70Z" fill="#101015"/>
<path d="M120 60V50H110V60V70H120V60Z" fill="#101015"/>
<path d="M40 0H30V10H40H50H60H70V0H60H50H40Z" fill="#101015"/>
<path d="M20 30V20H10V30V40V50H20V40V30Z" fill="#101015"/>
<path d="M10 60V50H0V60V70V80V90V100H10V90V80V70V60Z" fill="#101015"/>
</svg>
